# xmcd
#
# Track frame offsets: 
#        150
#        15264
#        31863
#        52232
#        67142
#
# Disc length: 1099 seconds
#
# Revision: 4
# Processed by: cddbd v1.5.2PL0 Copyright (c) Steve Scherf et al.
# Submitted via: ExactAudioCopy v0.95a5
#
DISCID=3c044905
DTITLE=Cos Tak O - To cos
DYEAR=2014
DGENRE=Blues
TTITLE0=Nie jestes z nim za kare
TTITLE1=Weekend
TTITLE2=Lubelski blues
TTITLE3=To cos
TTITLE4=Szczesliwy gosc
EXTD=
EXTT0=
EXTT1=
EXTT2=
EXTT3=
EXTT4=
PLAYORDER=
